<?xml version="1.0" encoding="UTF-8"?>
<!DOCTYPE svg PUBLIC "-//W3C//DTD SVG 1.1//EN" "http://www.w3.org/Graphics/SVG/1.1/DTD/svg11.dtd">
<svg version="1.1" xmlns="http://www.w3.org/2000/svg" xmlns:xlink="http://www.w3.org/1999/xlink" x="0px" y="0px" width="110" height="40" viewBox="0, 0, 110, 40">
  <g id="Layer 1">
    <path d="M105.272,40 L4.73,40 C2.123,40 0.002,37.882 0.002,35.277 L0.002,4.726 C0.002,2.12 2.123,0 4.73,0 L105.272,0 C107.875,0 110,2.12 110,4.726 L110,35.277 C109.999,37.882 107.877,40 105.272,40 L105.272,40 z" fill="#A6A6A6"/>
    <path d="M109.108,35.278 C109.108,37.396 107.395,39.108 105.274,39.108 L4.733,39.108 C2.614,39.108 0.894,37.396 0.894,35.278 L0.894,4.727 C0.894,2.611 2.614,0.891 4.733,0.891 L105.274,0.891 C107.395,0.891 109.108,2.611 109.108,4.727 L109.108,35.278 z" fill="#000000"/>
    <path d="M14.579,21.831 Q14.579,22.461 14.341,22.958 Q14.103,23.455 13.711,23.791 Q13.319,24.127 12.815,24.309 Q12.311,24.491 11.765,24.491 L9.063,24.491 L9.063,15.559 L11.261,15.559 Q11.723,15.559 12.157,15.713 Q12.591,15.867 12.927,16.147 Q13.263,16.427 13.459,16.84 Q13.655,17.253 13.655,17.771 Q13.655,18.303 13.389,18.772 Q13.123,19.241 12.675,19.437 Q13.053,19.521 13.396,19.738 Q13.739,19.955 14.005,20.27 Q14.271,20.585 14.425,20.991 Q14.579,21.397 14.579,21.831 z M12.703,17.771 Q12.703,17.085 12.248,16.728 Q11.793,16.371 11.121,16.371 L10.001,16.371 L10.001,19.171 L11.163,19.171 Q11.793,19.171 12.248,18.807 Q12.703,18.443 12.703,17.771 z M13.627,21.831 Q13.627,21.397 13.459,21.054 Q13.291,20.711 13.004,20.473 Q12.717,20.235 12.332,20.109 Q11.947,19.983 11.527,19.983 L10.001,19.983 L10.001,23.679 L11.583,23.679 Q11.989,23.679 12.36,23.553 Q12.731,23.427 13.011,23.196 Q13.291,22.965 13.459,22.622 Q13.627,22.279 13.627,21.831 z" fill="#FFFFFF"/>
    <path d="M16.371,24.491 L16.371,15.559 L17.309,15.559 L17.309,24.491 z" fill="#FFFFFF"/>
    <path d="M28.453,20.011 Q28.453,21.061 28.068,21.915 Q27.683,22.769 27.039,23.378 Q26.395,23.987 25.548,24.316 Q24.701,24.645 23.777,24.645 Q22.853,24.645 22.006,24.316 Q21.159,23.987 20.515,23.378 Q19.871,22.769 19.486,21.915 Q19.101,21.061 19.101,20.011 Q19.101,18.975 19.486,18.128 Q19.871,17.281 20.515,16.672 Q21.159,16.063 22.006,15.734 Q22.853,15.405 23.777,15.405 Q24.701,15.405 25.548,15.734 Q26.395,16.063 27.039,16.672 Q27.683,17.281 28.068,18.128 Q28.453,18.975 28.453,20.011 z M27.501,20.011 Q27.501,19.157 27.193,18.45 Q26.885,17.743 26.367,17.253 Q25.849,16.763 25.177,16.49 Q24.505,16.217 23.777,16.217 Q23.035,16.217 22.363,16.49 Q21.691,16.763 21.18,17.253 Q20.669,17.743 20.361,18.45 Q20.053,19.157 20.053,20.011 Q20.053,20.879 20.361,21.579 Q20.669,22.279 21.18,22.776 Q21.691,23.273 22.363,23.546 Q23.035,23.819 23.777,23.819 Q24.505,23.819 25.177,23.546 Q25.849,23.273 26.367,22.776 Q26.885,22.279 27.193,21.579 Q27.501,20.879 27.501,20.011 z" fill="#FFFFFF"/>
    <path d="M37.679,23.679 Q37.077,24.141 36.258,24.393 Q35.439,24.645 34.417,24.645 Q33.479,24.645 32.618,24.323 Q31.757,24.001 31.092,23.406 Q30.427,22.811 30.028,21.957 Q29.629,21.103 29.629,20.025 Q29.629,18.933 30.035,18.079 Q30.441,17.225 31.099,16.63 Q31.757,16.035 32.611,15.72 Q33.465,15.405 34.361,15.405 Q35.243,15.405 35.957,15.587 Q36.671,15.769 37.175,16.091 L36.979,16.917 Q36.489,16.595 35.838,16.406 Q35.187,16.217 34.459,16.217 Q33.703,16.217 32.996,16.483 Q32.289,16.749 31.757,17.239 Q31.225,17.729 30.903,18.436 Q30.581,19.143 30.581,20.039 Q30.581,20.921 30.896,21.621 Q31.211,22.321 31.75,22.811 Q32.289,23.301 32.989,23.56 Q33.689,23.819 34.473,23.819 Q35.229,23.819 35.831,23.637 Q36.433,23.455 36.769,23.217 L36.769,21.005 L34.417,21.005 L34.417,20.235 L37.679,20.235 z" fill="#FFFFFF"/>
    <path d="M44.917,24.491 L41.935,20.403 L40.395,20.403 L40.395,24.491 L39.457,24.491 L39.457,15.559 L42.005,15.559 Q42.509,15.559 42.985,15.72 Q43.461,15.881 43.825,16.196 Q44.189,16.511 44.406,16.959 Q44.623,17.407 44.623,17.981 Q44.623,18.863 44.126,19.458 Q43.629,20.053 42.873,20.263 L46.009,24.491 z M43.671,17.981 Q43.671,17.603 43.524,17.302 Q43.377,17.001 43.132,16.798 Q42.887,16.595 42.558,16.483 Q42.229,16.371 41.851,16.371 L40.395,16.371 L40.395,19.591 L41.907,19.591 Q42.257,19.591 42.579,19.486 Q42.901,19.381 43.139,19.171 Q43.377,18.961 43.524,18.66 Q43.671,18.359 43.671,17.981 z" fill="#FFFFFF"/>
    <path d="M52.967,24.491 L51.945,21.985 L48.165,21.985 L47.157,24.491 L46.233,24.491 L49.929,15.377 L50.223,15.377 L53.919,24.491 z M50.559,18.471 Q50.433,18.163 50.314,17.813 Q50.195,17.463 50.083,17.099 L50.055,17.099 Q49.943,17.463 49.817,17.813 Q49.691,18.163 49.565,18.471 L48.487,21.215 L51.623,21.215 z" fill="#FFFFFF"/>
    <path d="M60.359,17.981 Q60.359,18.555 60.142,19.003 Q59.925,19.451 59.568,19.766 Q59.211,20.081 58.749,20.242 Q58.287,20.403 57.797,20.403 L56.187,20.403 L56.187,24.491 L55.249,24.491 L55.249,15.559 L57.741,15.559 Q58.245,15.559 58.721,15.72 Q59.197,15.881 59.561,16.196 Q59.925,16.511 60.142,16.959 Q60.359,17.407 60.359,17.981 z M59.407,17.981 Q59.407,17.603 59.26,17.302 Q59.113,17.001 58.868,16.798 Q58.623,16.595 58.294,16.483 Q57.965,16.371 57.587,16.371 L56.187,16.371 L56.187,19.591 L57.643,19.591 Q57.993,19.591 58.315,19.486 Q58.637,19.381 58.875,19.171 Q59.113,18.961 59.26,18.66 Q59.407,18.359 59.407,17.981 z" fill="#FFFFFF"/>
    <path d="M67.639,24.491 L67.639,20.403 L62.515,20.403 L62.515,24.491 L61.577,24.491 L61.577,15.559 L62.515,15.559 L62.515,19.591 L67.639,19.591 L67.639,15.559 L68.577,15.559 L68.577,24.491 z" fill="#FFFFFF"/>
    <path d="M74.037,20.361 L74.037,24.491 L73.113,24.491 L73.113,20.361 L69.711,15.559 L70.747,15.559 L72.679,18.289 Q72.889,18.597 73.141,18.961 Q73.393,19.325 73.603,19.647 L73.631,19.647 Q73.841,19.325 74.079,18.968 Q74.317,18.611 74.555,18.289 L76.501,15.559 L77.467,15.559 z" fill="#FFFFFF"/>
    <path d="M80.111,21.097 L82.268,21.085 L83.376,19.022 C83.376,19.022 84.764,22.933 84.771,22.88 C84.779,22.827 86.987,16.56 86.987,16.56 L88.219,25.178 L90.435,13.195 L92.815,27.804 L95.031,14.918 L97.575,23.372 L99.052,20.828 L101.381,20.794" fill-opacity="0" stroke="#FFFFFF" stroke-width="1" stroke-linecap="square" stroke-linejoin="round"/>
  </g>
  <defs/>
</svg>
