<?xml version="1.0" encoding="UTF-8"?>
<!DOCTYPE svg PUBLIC "-//W3C//DTD SVG 1.1//EN" "http://www.w3.org/Graphics/SVG/1.1/DTD/svg11.dtd">
<svg version="1.1" xmlns="http://www.w3.org/2000/svg" xmlns:xlink="http://www.w3.org/1999/xlink" x="0px" y="0px" width="110" height="40" viewBox="0, 0, 110, 40">
  <g id="Layer 2">
    <path d="M105.271,40 L4.729,40 C2.122,40 0.001,37.882 0.001,35.277 L0.001,4.726 C0.001,2.12 2.122,0 4.729,0 L105.271,0 C107.874,0 109.999,2.12 109.999,4.726 L109.999,35.277 C109.998,37.882 107.876,40 105.271,40 L105.271,40 z" fill="#A6A6A6"/>
    <path d="M109.107,35.278 C109.107,37.396 107.394,39.108 105.273,39.108 L4.732,39.108 C2.613,39.108 0.893,37.396 0.893,35.278 L0.893,4.727 C0.893,2.611 2.613,0.891 4.732,0.891 L105.273,0.891 C107.394,0.891 109.107,2.611 109.107,4.727 L109.107,35.278 z" fill="#000000"/>
    <text transform="matrix(1, 0, 0, 1, 40.257, 20)">
      <tspan x="-30.17" y="4.459" font-family="Agenda-Light" font-size="14" fill="#FFFFFF">BUY NOW</tspan>
    </text>
    <g>
      <path d="M88.1,10.082 C89.994,9.886 91.936,10.26 93.635,11.114 C95.815,12.231 97.575,14.162 98.435,16.463 C99.229,18.545 99.291,20.896 98.616,23.019 C97.979,25.032 96.683,26.838 94.961,28.064 C93.515,29.15 91.744,29.764 89.951,29.932 C88.222,30.085 86.463,29.751 84.887,29.033 C82.771,28.039 81.018,26.288 80.049,24.158 C79.128,22.163 78.904,19.861 79.405,17.723 C79.865,15.758 80.932,13.933 82.448,12.597 C83.994,11.172 86.015,10.304 88.1,10.082 z" fill-opacity="0" stroke="#FFFFFF" stroke-width="1.5"/>
      <path d="M88.539,16.927 C89.579,16.718 90.702,17.108 91.415,17.886 C92.218,18.736 92.464,20.052 92.028,21.136 C91.618,22.225 90.549,23.019 89.392,23.116 C88.502,23.208 87.592,22.867 86.946,22.257 C86.046,21.413 85.733,20.014 86.196,18.87 C86.571,17.873 87.495,17.12 88.539,16.927 z" fill-opacity="0" stroke="#FFFFFF" stroke-width="1"/>
      <path d="M88.807,18.763 C89.541,18.556 90.35,19.144 90.388,19.902 C90.47,20.652 89.768,21.354 89.018,21.275 C88.307,21.243 87.726,20.528 87.846,19.826 C87.912,19.322 88.309,18.874 88.807,18.763 z" fill-opacity="0" stroke="#FFFFFF" stroke-width="0.5"/>
      <path d="M94.414,16.469 C94.477,16.421 94.604,16.325 94.667,16.277 C95.672,17.568 96.127,19.273 95.875,20.892 C95.731,21.922 95.295,22.899 94.668,23.723 C94.604,23.675 94.477,23.58 94.414,23.532 C95.409,22.241 95.851,20.522 95.52,18.918 C95.356,18.027 94.96,17.189 94.414,16.469 z" fill-opacity="0" stroke="#FFFFFF" stroke-width="1"/>
    </g>
  </g>
  <defs/>
</svg>
