<?xml version="1.0" encoding="UTF-8"?>
<!DOCTYPE svg PUBLIC "-//W3C//DTD SVG 1.1//EN" "http://www.w3.org/Graphics/SVG/1.1/DTD/svg11.dtd">
<svg version="1.1" xmlns="http://www.w3.org/2000/svg" xmlns:xlink="http://www.w3.org/1999/xlink" x="0px" y="0px" width="110" height="40" viewBox="0, 0, 110, 40">
  <g id="Layer 2">
    <path d="M105.271,40 L4.729,40 C2.122,40 0.001,37.882 0.001,35.277 L0.001,4.726 C0.001,2.12 2.122,0 4.729,0 L105.271,0 C107.874,0 109.999,2.12 109.999,4.726 L109.999,35.277 C109.998,37.882 107.876,40 105.271,40 L105.271,40 z" fill="#A6A6A6"/>
    <path d="M109.107,35.278 C109.107,37.396 107.394,39.108 105.273,39.108 L4.732,39.108 C2.613,39.108 0.893,37.396 0.893,35.278 L0.893,4.727 C0.893,2.611 2.613,0.891 4.732,0.891 L105.273,0.891 C107.394,0.891 109.107,2.611 109.107,4.727 L109.107,35.278 z" fill="#000000"/>
    <path d="M16.569,21.799 Q16.569,22.429 16.331,22.926 Q16.093,23.423 15.701,23.759 Q15.309,24.095 14.805,24.277 Q14.301,24.459 13.755,24.459 L11.053,24.459 L11.053,15.527 L13.251,15.527 Q13.713,15.527 14.147,15.681 Q14.581,15.835 14.917,16.115 Q15.253,16.395 15.449,16.808 Q15.645,17.221 15.645,17.739 Q15.645,18.271 15.379,18.74 Q15.113,19.209 14.665,19.405 Q15.043,19.489 15.386,19.706 Q15.729,19.923 15.995,20.238 Q16.261,20.553 16.415,20.959 Q16.569,21.365 16.569,21.799 z M14.693,17.739 Q14.693,17.053 14.238,16.696 Q13.783,16.339 13.111,16.339 L11.991,16.339 L11.991,19.139 L13.153,19.139 Q13.783,19.139 14.238,18.775 Q14.693,18.411 14.693,17.739 z M15.617,21.799 Q15.617,21.365 15.449,21.022 Q15.281,20.679 14.994,20.441 Q14.707,20.203 14.322,20.077 Q13.937,19.951 13.517,19.951 L11.991,19.951 L11.991,23.647 L13.573,23.647 Q13.979,23.647 14.35,23.521 Q14.721,23.395 15.001,23.164 Q15.281,22.933 15.449,22.59 Q15.617,22.247 15.617,21.799 z" fill="#FFFFFF"/>
    <path d="M25.095,21.365 Q25.095,22.121 24.843,22.723 Q24.591,23.325 24.129,23.745 Q23.667,24.165 23.023,24.389 Q22.379,24.613 21.609,24.613 Q20.825,24.613 20.188,24.389 Q19.551,24.165 19.089,23.745 Q18.627,23.325 18.375,22.723 Q18.123,22.121 18.123,21.365 L18.123,15.527 L19.061,15.527 L19.061,21.281 Q19.061,22.457 19.726,23.115 Q20.391,23.773 21.623,23.773 Q22.841,23.773 23.513,23.115 Q24.185,22.457 24.185,21.281 L24.185,15.527 L25.095,15.527 z" fill="#FFFFFF"/>
    <path d="M30.555,20.329 L30.555,24.459 L29.631,24.459 L29.631,20.329 L26.229,15.527 L27.265,15.527 L29.197,18.257 Q29.407,18.565 29.659,18.929 Q29.911,19.293 30.121,19.615 L30.149,19.615 Q30.359,19.293 30.597,18.936 Q30.835,18.579 31.073,18.257 L33.019,15.527 L33.985,15.527 z" fill="#FFFFFF"/>
    <path d="M45.969,24.655 L41.573,19.615 Q40.999,18.957 40.425,18.278 Q39.851,17.599 39.389,17.039 L39.361,17.053 Q39.389,17.683 39.389,18.299 Q39.389,18.915 39.389,19.531 L39.389,24.459 L38.451,24.459 L38.451,15.527 L39.109,15.527 L43.253,20.273 Q43.715,20.805 44.275,21.463 Q44.835,22.121 45.283,22.667 L45.311,22.653 Q45.283,22.051 45.283,21.456 Q45.283,20.861 45.283,20.287 L45.283,15.527 L46.221,15.527 L46.221,24.655 z" fill="#FFFFFF"/>
    <path d="M57.127,19.979 Q57.127,21.029 56.742,21.883 Q56.357,22.737 55.713,23.346 Q55.069,23.955 54.222,24.284 Q53.375,24.613 52.451,24.613 Q51.527,24.613 50.68,24.284 Q49.833,23.955 49.189,23.346 Q48.545,22.737 48.16,21.883 Q47.775,21.029 47.775,19.979 Q47.775,18.943 48.16,18.096 Q48.545,17.249 49.189,16.64 Q49.833,16.031 50.68,15.702 Q51.527,15.373 52.451,15.373 Q53.375,15.373 54.222,15.702 Q55.069,16.031 55.713,16.64 Q56.357,17.249 56.742,18.096 Q57.127,18.943 57.127,19.979 z M56.175,19.979 Q56.175,19.125 55.867,18.418 Q55.559,17.711 55.041,17.221 Q54.523,16.731 53.851,16.458 Q53.179,16.185 52.451,16.185 Q51.709,16.185 51.037,16.458 Q50.365,16.731 49.854,17.221 Q49.343,17.711 49.035,18.418 Q48.727,19.125 48.727,19.979 Q48.727,20.847 49.035,21.547 Q49.343,22.247 49.854,22.744 Q50.365,23.241 51.037,23.514 Q51.709,23.787 52.451,23.787 Q53.179,23.787 53.851,23.514 Q54.523,23.241 55.041,22.744 Q55.559,22.247 55.867,21.547 Q56.175,20.847 56.175,19.979 z" fill="#FFFFFF"/>
    <path d="M66.899,24.599 L66.619,24.599 L64.827,19.391 Q64.617,18.775 64.414,18.152 Q64.211,17.529 63.987,16.787 L63.959,16.787 Q63.735,17.529 63.532,18.152 Q63.329,18.775 63.119,19.391 L61.341,24.599 L61.047,24.599 L57.911,15.527 L58.863,15.527 L60.487,20.217 Q60.683,20.763 60.879,21.351 Q61.075,21.939 61.229,22.555 L61.257,22.555 Q61.425,21.953 61.614,21.365 Q61.803,20.777 61.999,20.217 L63.609,15.527 L64.435,15.527 L66.045,20.217 Q66.451,21.365 66.773,22.555 L66.801,22.555 Q66.969,21.981 67.165,21.386 Q67.361,20.791 67.557,20.217 L69.167,15.527 L70.049,15.527 z" fill="#FFFFFF"/>
    <g>
      <path d="M88.1,10.082 C89.994,9.886 91.936,10.26 93.635,11.114 C95.815,12.231 97.575,14.162 98.435,16.463 C99.229,18.545 99.291,20.896 98.616,23.019 C97.979,25.032 96.683,26.838 94.961,28.064 C93.515,29.15 91.744,29.764 89.951,29.932 C88.222,30.085 86.463,29.751 84.887,29.033 C82.771,28.039 81.018,26.288 80.049,24.158 C79.128,22.163 78.904,19.861 79.405,17.723 C79.865,15.758 80.932,13.933 82.448,12.597 C83.994,11.172 86.015,10.304 88.1,10.082 z" fill-opacity="0" stroke="#FFFFFF" stroke-width="1.5"/>
      <path d="M88.539,16.927 C89.579,16.718 90.702,17.108 91.415,17.886 C92.218,18.736 92.464,20.052 92.028,21.136 C91.618,22.225 90.549,23.019 89.392,23.116 C88.502,23.208 87.592,22.867 86.946,22.257 C86.046,21.413 85.733,20.014 86.196,18.87 C86.571,17.873 87.495,17.12 88.539,16.927 z" fill-opacity="0" stroke="#FFFFFF" stroke-width="1"/>
      <path d="M88.807,18.763 C89.541,18.556 90.35,19.144 90.388,19.902 C90.47,20.652 89.768,21.354 89.018,21.275 C88.307,21.243 87.726,20.528 87.846,19.826 C87.912,19.322 88.309,18.874 88.807,18.763 z" fill-opacity="0" stroke="#FFFFFF" stroke-width="0.5"/>
      <path d="M94.414,16.469 C94.477,16.421 94.604,16.325 94.667,16.277 C95.672,17.568 96.127,19.273 95.875,20.892 C95.731,21.922 95.295,22.899 94.668,23.723 C94.604,23.675 94.477,23.58 94.414,23.532 C95.409,22.241 95.851,20.522 95.52,18.918 C95.356,18.027 94.96,17.189 94.414,16.469 z" fill-opacity="0" stroke="#FFFFFF" stroke-width="1"/>
    </g>
  </g>
  <defs/>
</svg>
