<?xml version="1.0" encoding="UTF-8"?>
<!DOCTYPE svg PUBLIC "-//W3C//DTD SVG 1.1//EN" "http://www.w3.org/Graphics/SVG/1.1/DTD/svg11.dtd">
<svg version="1.1" xmlns="http://www.w3.org/2000/svg" xmlns:xlink="http://www.w3.org/1999/xlink" x="0px" y="0px" width="50" height="50" viewBox="0, 0, 50, 50">
  <g id="Layer 1">
    <path d="M22.597,1.755 C27.027,1.297 31.571,2.171 35.545,4.168 C40.645,6.783 44.762,11.3 46.774,16.682 C48.632,21.554 48.777,27.054 47.197,32.022 C45.709,36.731 42.677,40.955 38.649,43.824 C35.265,46.365 31.122,47.8 26.927,48.195 C22.881,48.553 18.766,47.769 15.079,46.089 C10.129,43.765 6.029,39.668 3.761,34.685 C1.606,30.018 1.083,24.632 2.255,19.631 C3.329,15.035 5.827,10.764 9.373,7.638 C12.991,4.305 17.718,2.273 22.597,1.755 z" fill-opacity="0" stroke="#131313" stroke-width="2.758"/>
    <path d="M39.541,14.378 C39.688,14.268 39.982,14.047 40.129,13.937 C42.839,17.42 44.204,21.922 43.841,26.323 C43.602,29.818 42.26,33.21 40.125,35.979 C39.98,35.868 39.688,35.645 39.543,35.535 C41.998,32.341 43.333,28.297 43.144,24.264 C43.016,20.695 41.715,17.202 39.541,14.378 z" fill="#131313"/>
    <path d="M36.535,16.697 C36.683,16.584 36.979,16.359 37.126,16.246 C39.477,19.268 40.543,23.255 39.952,27.044 C39.615,29.452 38.597,31.739 37.128,33.667 C36.979,33.554 36.683,33.331 36.535,33.219 C38.863,30.199 39.897,26.178 39.123,22.425 C38.739,20.341 37.811,18.381 36.535,16.697 z" fill="#131313"/>
    <path d="M23.623,17.765 C26.056,17.277 28.683,18.19 30.35,20.009 C32.23,21.998 32.805,25.077 31.785,27.613 C30.826,30.162 28.325,32.019 25.619,32.246 C23.537,32.46 21.409,31.663 19.897,30.236 C17.792,28.261 17.058,24.989 18.141,22.312 C19.02,19.98 21.182,18.217 23.623,17.765 z" fill-opacity="0" stroke="#131313" stroke-width="1.609"/>
    <path d="M33.725,18.875 C33.914,18.723 34.102,18.574 34.293,18.425 C37.266,22.12 37.248,27.777 34.311,31.486 C34.113,31.337 33.916,31.19 33.723,31.043 C34.938,29.42 35.717,27.444 35.784,25.406 C35.915,23.069 35.129,20.732 33.725,18.875 z" fill="#131313"/>
    <path d="M24.251,22.061 C25.967,21.577 27.86,22.953 27.949,24.726 C28.141,26.481 26.498,28.124 24.743,27.938 C23.081,27.863 21.722,26.191 22.001,24.548 C22.157,23.37 23.086,22.32 24.251,22.061 z" fill-opacity="0" stroke="#131313" stroke-width="0.689"/>
  </g>
  <defs/>
</svg>
