<?xml version="1.0" encoding="UTF-8"?>
<!DOCTYPE svg PUBLIC "-//W3C//DTD SVG 1.1//EN" "http://www.w3.org/Graphics/SVG/1.1/DTD/svg11.dtd">
<svg version="1.1" xmlns="http://www.w3.org/2000/svg" xmlns:xlink="http://www.w3.org/1999/xlink" x="0px" y="0px" width="110" height="40" viewBox="0, 0, 110, 40">
  <g id="Layer 2">
    <path d="M105.271,40 L4.729,40 C2.122,40 0.001,37.882 0.001,35.277 L0.001,4.726 C0.001,2.12 2.122,0 4.729,0 L105.271,0 C107.874,0 109.999,2.12 109.999,4.726 L109.999,35.277 C109.998,37.882 107.876,40 105.271,40 L105.271,40 z" fill="#A6A6A6"/>
    <path d="M109.107,35.278 C109.107,37.396 107.394,39.108 105.273,39.108 L4.732,39.108 C2.613,39.108 0.893,37.396 0.893,35.278 L0.893,4.727 C0.893,2.611 2.613,0.891 4.732,0.891 L105.273,0.891 C107.394,0.891 109.107,2.611 109.107,4.727 L109.107,35.278 z" fill="#000000"/>
    <path d="M16.099,9.024 L16.061,9.003 L9.91,5.678 L9.829,5.632 C9.731,5.585 9.625,5.559 9.506,5.559 C9.123,5.559 8.813,5.844 8.804,6.206 L8.8,6.223 L8.804,6.24 L8.804,12.906 L8.8,12.923 L8.804,12.94 C8.813,13.301 9.123,13.586 9.506,13.586 C9.608,13.586 9.697,13.569 9.782,13.535 L9.918,13.462 L16.053,10.146 L16.104,10.117 C16.286,9.998 16.405,9.798 16.405,9.573 C16.405,9.343 16.286,9.143 16.099,9.024" fill="#D1D2D4"/>
    <path d="M18.82,16.039 L18.782,16.022 L13.634,13.237 L13.566,13.199 C13.481,13.161 13.391,13.135 13.294,13.135 C12.975,13.135 12.711,13.377 12.707,13.675 L12.703,13.692 L12.707,13.709 L12.707,19.291 L12.703,19.308 L12.707,19.321 C12.711,19.622 12.975,19.86 13.294,19.86 C13.379,19.86 13.455,19.848 13.527,19.818 L13.638,19.758 L18.778,16.978 L18.82,16.957 C18.973,16.855 19.075,16.689 19.075,16.498 C19.075,16.306 18.973,16.141 18.82,16.039" fill="#D1D2D4"/>
    <path d="M21.29,11.664 L21.265,11.651 L17.961,9.866 L17.915,9.84 C17.864,9.815 17.808,9.802 17.745,9.802 C17.536,9.802 17.37,9.955 17.366,10.146 L17.366,13.768 C17.37,13.96 17.536,14.117 17.745,14.117 C17.796,14.117 17.847,14.104 17.893,14.087 L17.966,14.049 L21.26,12.268 L21.29,12.251 C21.388,12.187 21.452,12.081 21.452,11.957 C21.452,11.834 21.388,11.728 21.29,11.664" fill="#D1D2D4"/>
    <path d="M97.323,14.177 L97.973,14.177 L97.973,16.013 L98.386,16.013 L98.386,14.177 L99.045,14.177 L99.045,13.815 L97.323,13.815 L97.323,14.177" fill="#FFFFFF"/>
    <path d="M101.54,13.815 L100.936,13.815 L100.579,14.908 C100.545,15.061 100.49,15.252 100.443,15.448 L100.431,15.448 C100.384,15.222 100.346,15.061 100.29,14.891 L99.946,13.815 L99.321,13.815 L99.168,16.013 L99.563,16.013 L99.64,14.721 C99.648,14.525 99.653,14.308 99.653,14.104 L99.678,14.104 C99.721,14.3 99.793,14.563 99.827,14.729 L100.192,15.983 L100.622,15.983 L100.992,14.759 C101.051,14.559 101.115,14.3 101.166,14.104 L101.187,14.104 C101.196,14.347 101.196,14.551 101.204,14.721 L101.281,16.013 L101.693,16.013 L101.54,13.815" fill="#FFFFFF"/>
    <path d="M79.451,13.56 C77.414,13.56 75.803,14.423 75.289,16.081 C75.378,15.265 75.956,8.778 75.956,8.778 L72.092,8.778 L72.092,25.34 L74.932,25.34 C74.953,24.898 74.864,23.512 74.706,22.96 C75.31,24.465 77.057,25.617 79.272,25.617 C82.422,25.617 84.909,22.871 84.909,19.512 C84.909,15.86 82.469,13.56 79.451,13.56 z M78.311,22.739 C76.607,22.739 75.871,21.786 75.871,19.512 C75.871,17.233 76.743,16.102 78.443,16.102 C79.944,16.102 80.679,17.408 80.679,19.512 C80.679,21.565 79.855,22.739 78.311,22.739" fill="#D1D2D4"/>
    <path d="M71.093,17.233 C71.093,14.491 68.432,13.297 65.634,13.297 C62.773,13.297 60.223,14.402 60.223,17.033 C60.223,17.195 60.223,17.403 60.312,17.884 L64.142,17.884 C64.155,16.655 64.657,16.213 65.456,16.213 C66.421,16.213 67.067,16.591 67.067,17.497 L67.067,18.47 C66.506,18.402 65.992,18.381 65.524,18.381 C61.655,18.381 59.776,19.975 59.776,22.033 C59.776,24.333 61.745,25.659 63.959,25.659 C66.06,25.659 67.76,24.112 68.007,21.654 L68.232,21.654 C68.164,21.986 68.138,22.339 68.138,22.896 C68.138,25.128 69.762,25.34 71.357,25.34 C71.165,22.93 71.093,19.355 71.093,17.233 z M65.031,22.585 C64.317,22.585 63.755,22.186 63.755,21.433 C63.755,20.77 64.227,19.797 66.017,19.797 C66.327,19.797 66.663,19.818 67.046,19.886 C66.957,22.097 65.881,22.585 65.031,22.585" fill="#D1D2D4"/>
    <path d="M54.046,13.56 C52.009,13.56 50.398,14.423 49.884,16.081 C49.973,15.265 50.568,8.778 50.568,8.778 L46.687,8.778 L46.687,25.34 L49.527,25.34 C49.548,24.898 49.459,23.512 49.301,22.96 C49.905,24.465 51.652,25.617 53.867,25.617 C57.021,25.617 59.504,22.871 59.504,19.512 C59.504,15.86 57.064,13.56 54.046,13.56 z M52.906,22.739 C51.202,22.739 50.466,21.786 50.466,19.512 C50.466,17.233 51.338,16.102 53.038,16.102 C54.539,16.102 55.274,17.408 55.274,19.512 C55.274,21.565 54.449,22.739 52.906,22.739" fill="#D1D2D4"/>
    <path d="M32.645,31.496 C32.386,31.764 32.016,31.891 31.45,31.891 L30.379,31.891 L30.379,29.018 L31.45,29.018 C32.007,29.018 32.386,29.145 32.654,29.413 C32.887,29.655 33.066,30.093 33.066,30.454 C33.066,30.82 32.9,31.224 32.645,31.496 z M32.19,29.596 C32.007,29.443 31.82,29.396 31.412,29.396 L30.843,29.396 L30.843,31.513 L31.374,31.513 C31.795,31.513 31.995,31.458 32.194,31.3 C32.428,31.118 32.581,30.773 32.581,30.45 C32.581,30.119 32.432,29.791 32.19,29.596" fill="#FFFFFF"/>
    <path d="M34.686,29.018 L35.149,29.018 L35.149,31.891 L34.686,31.891 z" fill="#FFFFFF"/>
    <path d="M38.745,29.587 C38.592,29.485 38.524,29.464 38.38,29.413 C38.227,29.375 38.099,29.354 37.972,29.354 C37.602,29.354 37.377,29.485 37.377,29.711 C37.377,29.77 37.389,29.825 37.415,29.859 C37.5,29.987 37.598,30.038 38.163,30.31 C38.707,30.574 38.886,30.773 38.886,31.126 C38.886,31.641 38.482,31.947 37.827,31.947 C37.606,31.947 37.402,31.913 37.232,31.853 C37.109,31.806 37.024,31.764 36.82,31.641 L37.024,31.249 C37.207,31.381 37.287,31.428 37.402,31.475 C37.547,31.534 37.717,31.573 37.882,31.573 C38.223,31.573 38.422,31.428 38.422,31.186 C38.422,30.994 38.325,30.871 38.095,30.761 L37.564,30.51 C37.122,30.297 36.922,30.059 36.922,29.753 C36.922,29.277 37.334,28.971 37.98,28.971 C38.167,28.971 38.354,28.992 38.52,29.043 C38.652,29.077 38.724,29.115 38.907,29.209 L38.745,29.587" fill="#FFFFFF"/>
    <path d="M42.614,29.587 C42.482,29.494 42.427,29.455 42.321,29.421 C42.193,29.379 42.019,29.349 41.849,29.349 C41.19,29.349 40.735,29.787 40.735,30.42 C40.735,30.756 40.863,31.054 41.084,31.271 C41.3,31.483 41.568,31.573 41.993,31.573 C42.265,31.573 42.397,31.543 42.64,31.424 L42.771,31.76 C42.444,31.891 42.189,31.947 41.904,31.947 C40.931,31.947 40.25,31.326 40.25,30.442 C40.25,29.6 40.943,28.962 41.862,28.962 C42.231,28.962 42.516,29.047 42.831,29.239 L42.614,29.587" fill="#FFFFFF"/>
    <path d="M45.603,31.947 C44.667,31.947 43.991,31.322 43.991,30.454 C43.991,29.596 44.667,28.962 45.603,28.962 C46.534,28.962 47.214,29.596 47.214,30.454 C47.214,31.322 46.534,31.947 45.603,31.947 z M45.603,29.349 C44.965,29.349 44.476,29.825 44.476,30.454 C44.476,31.084 44.965,31.564 45.603,31.564 C46.24,31.564 46.721,31.084 46.721,30.454 C46.721,29.825 46.24,29.349 45.603,29.349" fill="#FFFFFF"/>
    <path d="M49.828,31.964 L49.586,31.964 L48.323,29.018 L48.821,29.018 L49.697,31.092 C49.714,31.126 49.726,31.169 49.726,31.224 C49.731,31.169 49.739,31.139 49.765,31.092 L50.577,29.018 L51.074,29.018 L49.828,31.964" fill="#FFFFFF"/>
    <path d="M52.545,31.891 L52.545,29.018 L54.343,29.018 L54.343,29.396 L53.008,29.396 L53.008,30.225 L54.114,30.225 L54.114,30.603 L53.008,30.603 L53.008,31.513 L54.381,31.513 L54.381,31.891 L52.545,31.891" fill="#FFFFFF"/>
    <path d="M57.702,31.891 L56.936,30.718 L56.516,30.718 L56.516,31.891 L56.056,31.891 L56.056,29.018 L57.034,29.018 C57.731,29.018 58.118,29.307 58.118,29.834 C58.118,30.28 57.842,30.616 57.434,30.684 L58.237,31.891 L57.702,31.891 z M57.442,29.477 C57.345,29.404 57.306,29.396 56.975,29.396 L56.516,29.396 L56.516,30.34 L56.975,30.34 C57.272,30.34 57.332,30.327 57.459,30.221 C57.57,30.123 57.617,30.008 57.617,29.855 C57.617,29.685 57.557,29.557 57.442,29.477" fill="#FFFFFF"/>
    <path d="M64.657,31.891 L64.657,29.6 C64.623,29.753 64.606,29.791 64.542,29.936 L63.649,31.891 L63.283,31.891 L62.484,30.059 C62.412,29.893 62.391,29.842 62.365,29.681 L62.365,31.891 L61.906,31.891 L61.906,29.018 L62.497,29.018 L63.437,31.139 C63.475,31.228 63.475,31.249 63.492,31.368 C63.509,31.279 63.517,31.254 63.551,31.139 L64.529,29.018 L65.116,29.018 L65.116,31.891 L64.657,31.891" fill="#FFFFFF"/>
    <path d="M69.129,31.76 C68.908,31.883 68.58,31.976 68.304,31.976 C68.024,31.976 67.696,31.883 67.471,31.76 C67.165,31.577 67.05,31.288 67.05,30.718 L67.05,29.018 L67.505,29.018 L67.505,30.799 C67.505,31.322 67.781,31.59 68.304,31.59 C68.827,31.59 69.099,31.322 69.099,30.799 L69.099,29.018 L69.554,29.018 L69.554,30.718 C69.554,31.288 69.439,31.577 69.129,31.76" fill="#FFFFFF"/>
    <path d="M73.053,29.587 C72.9,29.485 72.836,29.464 72.687,29.413 C72.534,29.375 72.407,29.354 72.279,29.354 C71.909,29.354 71.684,29.485 71.684,29.711 C71.684,29.77 71.697,29.825 71.722,29.859 C71.807,29.987 71.905,30.038 72.47,30.31 C73.014,30.574 73.193,30.773 73.193,31.126 C73.193,31.641 72.789,31.947 72.134,31.947 C71.918,31.947 71.709,31.913 71.539,31.853 C71.416,31.806 71.331,31.764 71.127,31.641 L71.331,31.249 C71.514,31.381 71.595,31.428 71.709,31.475 C71.854,31.534 72.024,31.573 72.19,31.573 C72.53,31.573 72.73,31.428 72.73,31.186 C72.73,30.994 72.632,30.871 72.402,30.761 L71.875,30.51 C71.429,30.297 71.229,30.059 71.229,29.753 C71.229,29.277 71.641,28.971 72.288,28.971 C72.475,28.971 72.662,28.992 72.827,29.043 C72.963,29.077 73.036,29.115 73.219,29.209 L73.053,29.587" fill="#FFFFFF"/>
    <path d="M74.911,29.018 L75.374,29.018 L75.374,31.891 L74.911,31.891 z" fill="#FFFFFF"/>
    <path d="M79.413,29.587 C79.281,29.494 79.226,29.455 79.119,29.421 C78.992,29.379 78.817,29.349 78.647,29.349 C77.993,29.349 77.534,29.787 77.534,30.42 C77.534,30.756 77.661,31.054 77.882,31.271 C78.099,31.483 78.367,31.573 78.792,31.573 C79.068,31.573 79.196,31.543 79.438,31.424 L79.57,31.76 C79.243,31.891 78.987,31.947 78.703,31.947 C77.729,31.947 77.049,31.326 77.049,30.442 C77.049,29.6 77.742,28.962 78.66,28.962 C79.03,28.962 79.315,29.047 79.634,29.239 L79.413,29.587" fill="#FFFFFF"/>
    <path d="M92.43,13.854 C92.43,16.621 92.417,19.554 91.52,21.625 C91.52,21.625 90.308,17.352 88.969,15.269 C87.809,13.458 85.551,13.492 83.54,13.764 L90.262,24.482 C90.262,27.198 87.957,28.61 86.593,28.61 C85.768,28.61 85.624,28.163 85.917,28.163 C86.92,28.163 87.847,27.317 87.847,26.033 C87.847,24.864 86.818,23.801 85.585,23.801 C83.932,23.801 83.081,24.975 83.081,26.611 C83.081,28.933 84.939,29.906 86.95,29.906 C92.268,29.906 96.349,23.19 96.349,13.854 L92.43,13.854" fill="#D1D2D4"/>
    <path d="M27.939,22.275 C26.37,22.275 24.717,20.991 24.717,18.713 C24.717,16.923 25.767,15.307 27.824,15.239 C27.467,15.597 27.267,16.081 27.267,16.634 C27.267,18.181 28.228,18.891 29.614,18.891 C30.911,18.891 31.965,17.96 31.965,16.57 C31.965,14.423 29.75,13.297 27.488,13.297 C24.491,13.297 21.026,15.176 21.026,19.486 C21.026,22.828 23.552,25.659 27.021,25.659 C29.423,25.659 31.263,24.898 32.649,22.943 L31.842,20.813 C30.647,21.952 28.968,22.275 27.939,22.275" fill="#FFFFFF"/>
    <path d="M39.086,22.739 C37.542,22.739 36.718,21.565 36.718,19.512 C36.718,17.408 37.453,16.102 38.954,16.102 C40.654,16.102 41.526,17.233 41.526,19.512 C41.526,21.786 40.786,22.739 39.086,22.739 z M41.415,8.778 C41.415,8.778 42.019,15.265 42.108,16.081 C41.59,14.423 39.983,13.56 37.946,13.56 C34.928,13.56 32.488,15.86 32.488,19.512 C32.488,22.871 34.97,25.617 38.125,25.617 C40.34,25.617 42.083,24.465 42.686,22.96 C42.533,23.512 42.444,24.898 42.465,25.34 L45.305,25.34 L45.305,8.778 L41.415,8.778" fill="#FFFFFF"/>
  </g>
  <defs/>
</svg>
