<?xml version="1.0" encoding="UTF-8" ?>
<!DOCTYPE svg PUBLIC "-//W3C//DTD SVG 1.1//EN" "http://www.w3.org/Graphics/SVG/1.1/DTD/svg11.dtd">
<svg width="614pt" height="614pt" viewBox="0 0 614 614" version="1.1" xmlns="http://www.w3.org/2000/svg">
<path fill="#ffffff" d=" M 0.00 0.00 L 614.00 0.00 L 614.00 614.00 L 0.00 614.00 L 0.00 0.00 Z" />
<path fill="#040404" d=" M 202.67 228.80 C 272.22 228.79 341.78 228.79 411.34 228.80 C 376.56 259.20 341.78 289.59 307.00 319.98 C 272.22 289.58 237.43 259.20 202.67 228.80 Z" />
<path fill="#040404" d=" M 196.98 232.49 C 222.48 254.60 247.84 276.88 273.26 299.08 C 247.70 326.14 222.23 353.29 196.62 380.30 C 196.39 335.54 196.59 290.76 196.52 245.99 C 196.65 241.49 196.14 236.94 196.98 232.49 Z" />
<path fill="#040404" d=" M 340.71 299.06 C 366.16 276.89 391.50 254.59 417.01 232.49 C 417.30 234.30 417.54 236.13 417.51 237.97 C 417.36 285.41 417.65 332.86 417.37 380.29 C 391.75 353.28 366.26 326.14 340.71 299.06 Z" />
<path fill="#040404" d=" M 199.58 384.34 C 225.31 356.94 251.15 329.63 276.94 302.28 C 286.16 310.29 295.32 318.39 304.57 326.37 C 305.87 327.81 308.14 327.80 309.45 326.36 C 318.69 318.39 327.84 310.28 337.06 302.28 C 362.81 329.54 388.51 356.85 414.26 384.10 C 412.76 385.29 410.80 385.16 409.01 385.22 C 340.70 385.18 272.38 385.22 204.06 385.20 C 202.52 385.16 201.03 384.87 199.58 384.34 Z" />
</svg>
